<?xml version="1.0" encoding="iso-8859-1"?>
<svg version="1.1" id="Layer_1" xmlns="http://www.w3.org/2000/svg" xmlns:xlink="http://www.w3.org/1999/xlink" x="0px" y="0px"
	 viewBox="0 0 496.158 496.158" style="enable-background:new 0 0 496.158 496.158;" xml:space="preserve">
<path style="fill:#004972;" d="M496.158,248.079c0,137.014-111.072,248.079-248.079,248.079S0,385.093,0,248.079
	C0,111.071,111.072,0,248.079,0S496.158,111.071,496.158,248.079z"/>
<path style="fill:#FFFFFF;stroke:#CFCFCF;stroke-width:0.491;" d="M338.921,263.941c46.267,61.697,33.999,77.687-7.705,97.84
	c-20.707,10.008-51.158,39.584-80.398,39.584c-32.14,0-52.592-25.189-75.359-36.467c-44.67-22.114-70.861-45.547-19.785-104.484
	c45.808-52.861,5.627-165.621,95.144-165.621C340.342,94.793,296.633,207.553,338.921,263.941z"/>
<g>
	<path style="fill:#969696;" d="M212.836,162.412c0,10.121,6.972,18.323,15.579,18.323c8.601,0,15.58-8.202,15.58-18.323
		c0-10.122-6.979-18.325-15.58-18.325C219.808,144.087,212.836,152.29,212.836,162.412z"/>
	<path style="fill:#969696;" d="M256.444,162.041c0,10.128,6.979,18.332,15.585,18.332c8.601,0,15.574-8.204,15.574-18.332
		c0-10.115-6.973-18.317-15.574-18.317C263.423,143.724,256.444,151.926,256.444,162.041z"/>
	<path style="fill:#969696;" d="M268.906,230.945c0,18.924-8.357,34.268-18.688,34.268c-10.316,0-18.688-15.344-18.688-34.268
		c0-18.923,8.372-34.267,18.688-34.267C260.549,196.679,268.906,212.022,268.906,230.945z"/>
</g>
<ellipse style="fill:#140F2B;" cx="252.259" cy="436.769" rx="52.02" ry="15.832"/>
</svg>
